<svg width="70" height="73" viewBox="0 0 70 73" fill="none" xmlns="http://www.w3.org/2000/svg">
<g clip-path="url(#clip0)">
<g filter="url(#filter0_i)">
<g filter="url(#filter1_d)">
<path d="M4.59016 19.9609C4.59016 10.5117 12.2968 2.85156 21.8033 2.85156H49.3443C58.8511 2.85156 66.5574 10.5117 66.5574 19.9609V67.8672H27.541C14.8656 67.8672 4.59016 57.6535 4.59016 45.0547V19.9609Z" fill="white"/>
</g>
<path d="M21.8033 3.99219H49.3443C58.217 3.99219 65.4098 11.1416 65.4098 19.9609V66.7266H27.541C15.4994 66.7266 5.7377 57.0237 5.7377 45.0547V19.9609C5.7377 11.1416 12.9305 3.99219 21.8033 3.99219Z" stroke="url(#paint0_linear)" stroke-width="4"/>
</g>
<path d="M35.4482 50.0627C35.2839 51.2212 35.0448 52.2089 34.731 53.0257C34.4173 53.8277 34.0362 54.4886 33.588 55.0084C33.1397 55.5134 32.6243 55.8773 32.0415 56.1C31.4737 56.3377 30.8461 56.4565 30.1588 56.4565C29.1876 56.4565 28.2761 56.1743 27.4245 55.6099C26.5877 55.0455 25.863 54.2064 25.2504 53.0926C24.6378 51.9786 24.1522 50.5974 23.7936 48.9488C23.4499 47.3003 23.278 45.3918 23.278 43.2235C23.278 40.9511 23.4947 38.7456 23.928 36.6069C24.3763 34.4683 25.0038 32.4633 25.8107 30.5919C26.6325 28.7206 27.6112 27.0126 28.7468 25.468C29.8973 23.9086 31.1748 22.5793 32.5794 21.4803C33.9989 20.3664 35.5305 19.505 37.1741 18.8961C38.8176 18.2723 40.536 17.9604 42.329 17.9604C43.868 17.9604 45.2726 18.1906 46.5427 18.651C47.8127 19.1114 48.9035 19.75 49.8149 20.5669C50.7264 21.3838 51.4287 22.3491 51.9218 23.463C52.4149 24.5769 52.6613 25.7799 52.6613 27.0721C52.6613 28.6315 52.4447 30.087 52.0114 31.4385C51.5781 32.7752 50.9729 34.0004 50.196 35.1143C49.4339 36.2282 48.5225 37.2233 47.4616 38.0996C46.4007 38.9758 45.2427 39.7184 43.9876 40.3273C42.7474 40.9362 41.4325 41.4115 40.0429 41.7531C38.6682 42.0799 37.2712 42.2655 35.8517 42.3101C35.8068 44.1665 35.7546 45.7334 35.6948 47.0107C35.65 48.2731 35.5678 49.2905 35.4482 50.0627ZM31.5484 40.7284C31.6231 40.758 31.7128 40.7877 31.8174 40.8174C31.907 40.8471 32.0116 40.8769 32.1312 40.9066C32.2656 40.9362 32.4225 40.9659 32.6018 40.9957C32.5719 39.1392 32.5346 37.4386 32.4898 35.894C32.4599 34.3346 32.4225 32.9756 32.3777 31.8172C32.3179 30.4657 32.2656 29.2479 32.2208 28.1636C32.3254 28.0745 32.4449 28.0003 32.5794 27.9409C32.699 27.8814 32.8409 27.8295 33.0052 27.7849C33.1696 27.7403 33.3714 27.7181 33.6104 27.7181C34.2977 27.7181 34.8506 27.8443 35.269 28.0968C35.6873 28.3344 35.8965 28.7428 35.8965 29.3221C35.8965 31.7726 35.8965 33.9707 35.8965 35.9163C35.8965 37.8619 35.8816 39.6144 35.8517 41.1739C37.8091 41.1739 39.5797 40.8026 41.1636 40.06C42.7623 39.3174 44.122 38.3297 45.2427 37.0971C46.3634 35.8495 47.23 34.4163 47.8426 32.7974C48.4552 31.1786 48.7615 29.4854 48.7615 27.7181C48.7615 26.5893 48.6046 25.52 48.2909 24.5101C47.992 23.4853 47.5288 22.5942 46.9013 21.8368C46.2737 21.0644 45.4818 20.4555 44.5255 20.0099C43.5841 19.5495 42.471 19.3193 41.1859 19.3193C39.886 19.3193 38.601 19.5644 37.3309 20.0545C36.0758 20.5446 34.873 21.2798 33.7224 22.26C32.5869 23.2402 31.5335 24.4581 30.5622 25.9136C29.606 27.3691 28.7692 29.0696 28.052 31.0152C27.3497 32.9608 26.7969 35.144 26.3934 37.5649C26.0049 39.9709 25.8107 42.622 25.8107 45.5181C25.8107 46.7656 25.8705 47.9835 25.99 49.1717C26.1245 50.3449 26.3412 51.392 26.64 52.3128C26.9388 53.2188 27.3348 53.9465 27.8279 54.496C28.3359 55.0455 28.9635 55.3203 29.7105 55.3203C30.114 55.3203 30.495 55.2386 30.8536 55.0752C31.2122 54.9119 31.526 54.5777 31.795 54.0728C32.0639 53.5529 32.2806 52.8178 32.4449 51.8672C32.6093 50.9019 32.6915 49.6172 32.6915 48.0132C32.6915 47.0033 32.684 46.0082 32.6691 45.0279C32.6541 44.0329 32.6466 43.0675 32.6466 42.1318C32.4225 42.1021 32.2283 42.065 32.0639 42.0205C31.8996 41.9759 31.7576 41.9388 31.6381 41.9091C31.5036 41.8645 31.3915 41.8199 31.3019 41.7754L31.5484 40.7284Z" fill="url(#paint1_linear)"/>
</g>
<defs>
<filter id="filter0_i" x="2.7377" y="1.99219" width="64.6721" height="68.7344" filterUnits="userSpaceOnUse" color-interpolation-filters="sRGB">
<feFlood flood-opacity="0" result="BackgroundImageFix"/>
<feBlend mode="normal" in="SourceGraphic" in2="BackgroundImageFix" result="shape"/>
<feColorMatrix in="SourceAlpha" type="matrix" values="0 0 0 0 0 0 0 0 0 0 0 0 0 0 0 0 0 0 127 0" result="hardAlpha"/>
<feOffset dx="-1" dy="2"/>
<feGaussianBlur stdDeviation="3.5"/>
<feComposite in2="hardAlpha" operator="arithmetic" k2="-1" k3="1"/>
<feColorMatrix type="matrix" values="0 0 0 0 0 0 0 0 0 0 0 0 0 0 0 0 0 0 0.25 0"/>
<feBlend mode="normal" in2="shape" result="effect1_innerShadow"/>
</filter>
<filter id="filter1_d" x="-2.40984" y="0.851562" width="71.9672" height="75.0156" filterUnits="userSpaceOnUse" color-interpolation-filters="sRGB">
<feFlood flood-opacity="0" result="BackgroundImageFix"/>
<feColorMatrix in="SourceAlpha" type="matrix" values="0 0 0 0 0 0 0 0 0 0 0 0 0 0 0 0 0 0 127 0" result="hardAlpha"/>
<feOffset dx="-2" dy="3"/>
<feGaussianBlur stdDeviation="2.5"/>
<feComposite in2="hardAlpha" operator="out"/>
<feColorMatrix type="matrix" values="0 0 0 0 0 0 0 0 0 0 0 0 0 0 0 0 0 0 0.15 0"/>
<feBlend mode="normal" in2="BackgroundImageFix" result="effect1_dropShadow"/>
<feBlend mode="normal" in="SourceGraphic" in2="effect1_dropShadow" result="shape"/>
</filter>
<linearGradient id="paint0_linear" x1="13.5" y1="4" x2="65" y2="73.5" gradientUnits="userSpaceOnUse">
<stop stop-color="#00FFFF"/>
<stop offset="1" stop-color="#FF00B8"/>
</linearGradient>
<linearGradient id="paint1_linear" x1="39.8771" y1="8.55469" x2="39.8771" y2="51.8984" gradientUnits="userSpaceOnUse">
<stop stop-color="#D90082"/>
<stop offset="1" stop-color="#3CDCF0"/>
</linearGradient>
<clipPath id="clip0">
<rect width="70" height="73" fill="white"/>
</clipPath>
</defs>
</svg>
